<svg width="266" height="241" viewBox="0 0 266 241" fill="none" xmlns="http://www.w3.org/2000/svg">
<path d="M23.5928 5.24432C-44.9441 40.8846 59.6125 70.6989 84.9218 95.981C103.084 114.123 92.7056 148.673 121.226 171.177C151.203 194.793 198.231 198.952 223.113 189.597C260.705 175.506 267.499 96.7872 211.597 63.1589C169.209 37.6464 132.932 66.0855 88.9254 44.7799C61.2519 31.3801 60.9064 -14.1644 23.5928 5.24432Z" fill="#1660CD"/>
<path opacity="0.9" d="M23.5928 5.24432C-44.9441 40.8846 59.6125 70.6989 84.9218 95.981C103.084 114.123 92.7056 148.673 121.226 171.177C151.203 194.793 198.231 198.952 223.113 189.597C260.705 175.506 267.499 96.7872 211.597 63.1589C169.209 37.6464 132.932 66.0855 88.9254 44.7799C61.2519 31.3801 60.9064 -14.1644 23.5928 5.24432Z" fill="white"/>
<path d="M133.982 240.5C206.524 240.5 265.332 237.067 265.332 232.831C265.332 228.596 206.524 225.163 133.982 225.163C61.4399 225.163 2.63275 228.596 2.63275 232.831C2.63275 237.067 61.4399 240.5 133.982 240.5Z" fill="#F5F5F5"/>
<path d="M215.492 53.0786C217.165 47.6591 200.046 46.4261 195.921 56.161C190.142 69.7979 198.57 77.4665 198.57 77.4665C203.481 74.8313 213.087 74.4384 218.337 76.1794L215.492 53.0786Z" fill="#263238"/>
<path d="M216.813 227.236L211.529 227.439L211.502 221.728L216.779 221.525L216.813 227.236Z" fill="#B55B52"/>
<path d="M211.319 226.348H217.308C217.414 226.349 217.517 226.384 217.602 226.449C217.686 226.514 217.747 226.605 217.775 226.707L219.076 231.449C219.109 231.561 219.115 231.679 219.094 231.793C219.073 231.908 219.025 232.015 218.955 232.108C218.884 232.2 218.792 232.275 218.687 232.325C218.583 232.376 218.467 232.4 218.351 232.398C216.258 232.357 215.241 232.235 212.613 232.235C210.994 232.235 206.821 232.404 204.585 232.404C202.35 232.404 201.943 230.196 202.851 230C206.916 229.099 209.232 227.866 210.486 226.687C210.709 226.471 211.008 226.349 211.319 226.348Z" fill="#1660CD"/>
<path opacity="0.2" d="M211.502 221.735L211.516 224.675L216.8 224.702L216.786 221.525L211.502 221.735Z" fill="black"/>
<path d="M199.43 116.027C198.57 122.53 201.503 153.381 203.976 166.835C207.261 184.713 210.371 223.476 210.371 223.476L217.491 223.049C217.491 223.049 218.351 180.553 216.17 166.144C216.027 147.236 216.366 114.123 216.366 114.123L199.43 116.027Z" fill="#263238"/>
<path opacity="0.2" d="M216.203 134.731C216.203 129.934 212.654 126.148 211.766 135.307C211.204 141.139 213.473 150.922 216.136 157.696C216.129 150.319 216.163 142.054 216.203 134.731Z" fill="black"/>
<path d="M248.246 227.825L243.403 227.954L241.12 221.349L245.97 221.22L248.246 227.825Z" fill="#B55B52"/>
<path d="M248.131 226.348H242.156C242.109 226.345 242.062 226.352 242.018 226.369C241.974 226.386 241.934 226.413 241.902 226.447C241.869 226.482 241.845 226.523 241.83 226.568C241.816 226.613 241.811 226.66 241.818 226.707L242.258 231.449C242.304 231.706 242.435 231.94 242.631 232.112C242.826 232.284 243.075 232.385 243.335 232.398C245.408 232.357 246.383 232.235 249.012 232.235C250.631 232.235 252.758 232.405 254.994 232.405C257.229 232.405 256.823 230.196 255.847 230C251.464 229.099 250.78 227.866 249.073 226.687C248.8 226.482 248.472 226.364 248.131 226.348Z" fill="#1660CD"/>
<path opacity="0.2" d="M241.127 221.355L242.299 224.756L247.244 224.898L245.977 221.22L241.127 221.355Z" fill="black"/>
<path d="M207.559 115.112C207.559 115.112 218.541 155.318 224.055 167.18C227.639 185.505 240.463 223.909 240.463 223.909L247.914 223.395C247.914 223.395 239.785 184.536 234.786 166.489C232.076 149.723 230.308 121.778 222.592 113.418L207.559 115.112Z" fill="#263238"/>
<path d="M196.917 86.1243C196.774 89.5115 196.483 92.7971 196.083 96.1233C195.684 99.4496 195.196 102.742 194.552 106.041L194.302 107.281L194.166 107.958C194.082 108.358 193.952 108.746 193.78 109.117C193.519 109.699 193.116 110.207 192.608 110.594C191.977 111.056 191.209 111.295 190.427 111.271C189.919 111.251 189.419 111.141 188.95 110.946C188.627 110.811 188.316 110.648 188.022 110.458C187.171 109.878 186.395 109.196 185.712 108.426C185.095 107.748 184.533 107.071 183.998 106.393C181.957 103.687 180.144 100.816 178.578 97.8102C178.414 97.493 178.372 97.1266 178.46 96.7805C178.548 96.4343 178.76 96.1327 179.056 95.9328C179.352 95.7329 179.712 95.6488 180.066 95.6964C180.42 95.7441 180.744 95.9201 180.976 96.1911C183.063 98.657 185.17 101.184 187.378 103.406C187.92 103.961 188.476 104.497 189.031 104.971C189.492 105.397 190.001 105.767 190.549 106.075C190.637 106.109 190.718 106.149 190.725 106.136C190.732 106.122 190.684 106.089 190.447 106.068C190.08 106.062 189.72 106.176 189.424 106.393C189.236 106.523 189.081 106.695 188.97 106.895C188.93 106.983 188.97 106.895 188.97 106.895L189.051 106.332L189.221 105.133C189.648 101.943 189.986 98.7179 190.298 95.4933C190.61 92.2687 190.847 89.0034 191.064 85.8194V85.7788C191.107 85.0035 191.456 84.2771 192.035 83.7594C192.613 83.2417 193.374 82.9751 194.149 83.0182C194.925 83.0613 195.651 83.4106 196.169 83.9893C196.686 84.568 196.953 85.3287 196.91 86.1039L196.917 86.1243Z" fill="#B55B52"/>
<path d="M194.43 81.599C189.404 84.0581 190.19 90.5751 190.19 90.5751L198.231 96.2385C198.231 96.2385 201.171 89.1593 200.561 85.7653C199.931 82.2764 198.156 79.8038 194.43 81.599Z" fill="#1660CD"/>
<path opacity="0.2" d="M193.597 87.0591C194.776 85.2029 196.801 85.65 199.159 87.1268C199.707 87.6018 200.166 88.1708 200.514 88.8069C200.008 91.3565 199.26 93.8519 198.278 96.2588L192.608 92.2686C192.382 90.4713 192.728 88.6486 193.597 87.0591Z" fill="black"/>
<path d="M181.356 97.1124L180.157 92.5261L176.092 96.1843C176.092 96.1843 177.562 98.6367 179.926 98.9686L181.356 97.1124Z" fill="#B55B52"/>
<path d="M177.04 90.6564L176.214 91.4761C175.586 92.0908 175.221 92.9256 175.197 93.8042C175.173 94.6827 175.492 95.5362 176.085 96.1843L180.15 92.5261L179.012 90.8528C178.905 90.697 178.766 90.5663 178.604 90.47C178.441 90.3738 178.26 90.3142 178.072 90.2954C177.884 90.2767 177.694 90.2993 177.516 90.3617C177.338 90.424 177.176 90.5246 177.04 90.6564Z" fill="#B55B52"/>
<path d="M179.1 90.968C178.073 89.5908 177.143 88.1444 176.316 86.6391C176.058 86.1243 175.225 86.8423 175.638 87.5943C176.051 88.3463 176.817 90.7986 177.63 91.6928C178.443 92.5871 179.1 90.968 179.1 90.968Z" fill="#B55B52"/>
<path d="M192.567 85.318C193.997 98.4062 198.265 107.531 199.43 116.027L222.558 113.439C221.25 104.937 220.586 99.375 222.212 83.6312C222.284 82.9466 222.212 82.2545 222.002 81.5991C221.791 80.9437 221.446 80.3393 220.989 79.8244C220.533 79.3095 219.973 78.8954 219.348 78.6084C218.722 78.3214 218.043 78.1678 217.355 78.1575C215.946 78.1575 214.388 78.1575 212.816 78.2591C209.292 78.3982 205.783 78.7921 202.316 79.4378C199.877 79.9391 197.282 80.6437 195.426 81.1856C194.543 81.4344 193.775 81.9832 193.253 82.7374C192.731 83.4917 192.489 84.4043 192.567 85.318Z" fill="#1660CD"/>
<path d="M202.316 79.4244C202.316 79.4244 198.603 83.4416 204.138 88.9086C206.198 84.7452 209.163 81.0951 212.816 78.2253L202.316 79.4244Z" fill="white"/>
<path d="M210.452 66.5327C210.167 69.9877 210.201 76.254 212.816 78.2457C212.816 78.2457 207.038 81.389 203.921 86.917C199.857 82.8523 202.316 79.4245 202.316 79.4245C205.981 78.0696 205.574 75.3124 204.619 72.7652L210.452 66.5327Z" fill="#B55B52"/>
<path opacity="0.2" d="M209.815 67.2168C209.991 69.2326 209.734 71.2627 209.063 73.1715C208.596 74.4858 206.983 75.2377 205.276 75.5561C205.194 74.5966 204.966 73.6553 204.599 72.7651L209.815 67.2168Z" fill="black"/>
<path d="M215.357 61.7024C214.354 67.298 214.042 69.6894 210.858 72.2502C206.062 76.098 199.41 73.6389 198.725 67.8536C198.109 62.644 199.863 54.3657 205.642 52.7669C206.915 52.4092 208.259 52.383 209.545 52.6908C210.832 52.9986 212.018 53.6302 212.991 54.5255C213.965 55.4209 214.693 56.5503 215.107 57.8064C215.521 59.0626 215.607 60.4037 215.357 61.7024Z" fill="#B55B52"/>
<path d="M211.041 57.211C209.686 60.2053 210.872 65.2861 215.167 64.9745C211.692 68.9375 212.518 77.6291 212.518 77.6291C214.691 77.7841 216.863 77.3139 218.778 76.2742C218.778 76.2742 217.423 68.0568 218.852 62.2918C220.017 57.6039 219.848 48.5058 209.686 50.484C208.501 50.7143 200.778 52.7398 199.999 56.7977C199.938 57.1635 208.243 59.5685 211.041 57.211Z" fill="#263238"/>
<path d="M216.63 64.8796C216.51 65.4106 216.286 65.9126 215.971 66.3567C215.655 66.8008 215.256 67.1783 214.794 67.4674C213.555 68.2329 212.532 67.2236 212.538 65.8416C212.538 64.5951 213.216 62.6982 214.605 62.495C214.913 62.4546 215.227 62.4922 215.517 62.6041C215.807 62.7161 216.065 62.899 216.266 63.1361C216.468 63.3732 216.606 63.657 216.67 63.9616C216.734 64.2661 216.72 64.5817 216.63 64.8796Z" fill="#B55B52"/>
<path opacity="0.2" d="M218.574 87.3844C218.485 88.5402 218.701 89.6992 219.2 90.7455C219.7 91.7917 220.465 92.6884 221.42 93.3459C221.542 91.0019 221.745 88.3734 222.043 85.352C220.864 84.0852 218.852 85.1895 218.574 87.3844Z" fill="black"/>
<path d="M222.727 112.036L224.001 113.988C224.102 114.143 223.933 114.326 223.662 114.353L199.41 117.063C199.2 117.063 199.017 117.002 198.99 116.873L198.542 114.841C198.542 114.699 198.685 114.557 198.908 114.529L222.334 111.901C222.406 111.888 222.48 111.893 222.549 111.917C222.618 111.941 222.679 111.982 222.727 112.036Z" fill="#263238"/>
<path d="M219.902 115.01L220.532 114.936C220.654 114.936 220.742 114.848 220.729 114.773L220.133 112.111C220.133 112.036 219.997 111.982 219.868 111.996L219.245 112.07C219.116 112.07 219.028 112.158 219.049 112.233L219.645 114.888C219.658 114.97 219.78 115.024 219.902 115.01Z" fill="#1660CD"/>
<path d="M201.225 117.104L201.848 117.036C201.977 117.036 202.065 116.941 202.045 116.867L201.449 114.211C201.449 114.13 201.313 114.082 201.191 114.096L200.561 114.164C200.439 114.164 200.351 114.252 200.365 114.333L200.961 116.988C200.981 117.063 201.096 117.117 201.225 117.104Z" fill="#1660CD"/>
<path d="M210.533 116.054L211.163 115.986C211.285 115.986 211.373 115.898 211.36 115.817L210.764 113.161C210.764 113.086 210.628 113.032 210.506 113.046L209.876 113.114C209.754 113.114 209.666 113.202 209.68 113.283L210.276 115.938C210.323 116.02 210.438 116.067 210.533 116.054Z" fill="#1660CD"/>
<path d="M205.791 62.2715C205.737 62.7321 205.452 63.0776 205.154 63.0438C204.856 63.0099 204.653 62.6034 204.707 62.1495C204.761 61.6957 205.046 61.3434 205.351 61.3773C205.656 61.4111 205.866 61.8176 205.791 62.2715Z" fill="#263238"/>
<path d="M200.622 61.6619C200.568 62.1225 200.283 62.468 199.985 62.4341C199.687 62.4003 199.484 61.9938 199.538 61.5399C199.592 61.086 199.877 60.7338 200.216 60.7676C200.554 60.8015 200.676 61.208 200.622 61.6619Z" fill="#263238"/>
<path d="M200.311 60.8082L199.24 60.3611C199.24 60.3611 199.694 61.2756 200.311 60.8082Z" fill="#263238"/>
<path d="M201.903 62.6306C201.37 63.6196 200.704 64.5313 199.924 65.3404C200.138 65.535 200.392 65.6803 200.669 65.7657C200.945 65.8512 201.237 65.8748 201.523 65.8349L201.903 62.6306Z" fill="#A02724"/>
<path d="M202.81 67.4539C202.789 67.4391 202.772 67.4186 202.761 67.3947C202.75 67.3708 202.746 67.3444 202.749 67.3184C202.752 67.3005 202.758 67.2833 202.767 67.2678C202.776 67.2523 202.789 67.2387 202.803 67.228C202.818 67.2173 202.834 67.2096 202.852 67.2053C202.869 67.201 202.887 67.2003 202.905 67.2032C203.472 67.3022 204.053 67.2661 204.603 67.0977C205.153 66.9294 205.655 66.6336 206.069 66.2345C206.081 66.2211 206.095 66.2103 206.112 66.2025C206.128 66.1948 206.145 66.1903 206.163 66.1894C206.181 66.1885 206.199 66.191 206.216 66.197C206.233 66.203 206.249 66.2123 206.262 66.2243C206.275 66.2363 206.286 66.2508 206.294 66.267C206.302 66.2832 206.306 66.3008 206.307 66.3187C206.308 66.3367 206.305 66.3546 206.299 66.3715C206.293 66.3884 206.284 66.404 206.272 66.4174C205.832 66.8505 205.296 67.1724 204.707 67.3563C204.117 67.5401 203.493 67.5805 202.885 67.4742L202.81 67.4539Z" fill="#263238"/>
<path d="M208.277 59.8597C208.236 59.8389 208.203 59.8057 208.182 59.7648C208.017 59.4661 207.784 59.2104 207.501 59.0186C207.219 58.8267 206.895 58.7041 206.557 58.6606C206.485 58.6606 206.416 58.6321 206.365 58.5812C206.314 58.5304 206.286 58.4615 206.286 58.3896C206.286 58.3178 206.314 58.2488 206.365 58.198C206.416 58.1472 206.485 58.1187 206.557 58.1187C206.984 58.1645 207.394 58.3113 207.753 58.5469C208.112 58.7825 208.41 59.1001 208.623 59.4735C208.641 59.5042 208.653 59.5382 208.658 59.5735C208.664 59.6089 208.662 59.6449 208.653 59.6796C208.644 59.7142 208.629 59.7467 208.607 59.7753C208.586 59.8039 208.559 59.828 208.528 59.8461C208.49 59.8669 208.448 59.8789 208.404 59.8813C208.361 59.8836 208.317 59.8763 208.277 59.8597Z" fill="#263238"/>
<path d="M199.254 58.9655L199.213 58.9316C199.188 58.907 199.168 58.8775 199.154 58.8449C199.14 58.8123 199.133 58.7773 199.133 58.7419C199.133 58.7065 199.14 58.6715 199.154 58.6389C199.168 58.6063 199.188 58.5769 199.213 58.5522C199.485 58.2177 199.833 57.9529 200.227 57.7797C200.622 57.6065 201.052 57.5299 201.483 57.5564C201.554 57.5654 201.62 57.6025 201.664 57.6597C201.709 57.7169 201.729 57.7894 201.72 57.8612C201.711 57.9331 201.673 57.9985 201.616 58.0429C201.559 58.0874 201.487 58.1073 201.415 58.0983C201.074 58.0793 200.733 58.1426 200.422 58.2829C200.111 58.4233 199.838 58.6364 199.626 58.9045C199.583 58.9597 199.521 58.9967 199.452 59.008C199.383 59.0193 199.312 59.0041 199.254 58.9655Z" fill="#263238"/>
<path d="M221.948 81.7278C223.94 83.7601 225.83 85.7924 227.673 87.9399C228.594 89.0103 229.522 90.0874 230.382 91.2255C231.319 92.397 232.185 93.6231 232.977 94.8973C233.228 95.2938 233.454 95.7055 233.654 96.1302C233.798 96.4579 233.911 96.798 233.993 97.1464C234.024 97.2872 234.046 97.4297 234.061 97.5732V97.8374C234.067 97.9547 234.067 98.0723 234.061 98.1896V98.3726V98.4539V98.5216L234.027 98.6571C233.851 99.3887 233.722 100.127 233.492 100.845C233.086 102.309 232.553 103.735 231.9 105.106C231.229 106.498 230.4 107.808 229.427 109.008C228.928 109.617 228.38 110.183 227.788 110.702C227.49 110.966 227.185 111.217 226.853 111.461C226.69 111.576 226.514 111.691 226.338 111.799C226.162 111.908 225.999 112.003 225.715 112.152L224.245 109.652C224.245 109.618 224.394 109.496 224.468 109.401L224.753 109.083C224.942 108.859 225.125 108.622 225.301 108.405C225.65 107.905 225.969 107.385 226.257 106.847C226.834 105.763 227.315 104.629 227.693 103.46C227.862 102.85 228.052 102.261 228.181 101.631C228.309 101.001 228.452 100.398 228.553 99.7749C228.655 99.1516 228.729 98.508 228.824 97.878V97.7561V97.7019V97.8238C228.824 97.8983 228.824 98 228.824 98.0474C228.821 98.0902 228.821 98.1333 228.824 98.1761V98.3455C228.824 98.4809 228.824 98.4403 228.824 98.3861C228.824 98.3319 228.607 98.0338 228.452 97.8103C227.774 96.8822 226.921 95.8321 226.053 94.8363C225.186 93.8405 224.279 92.804 223.344 91.8081L217.755 85.806L221.948 81.7278Z" fill="#B55B52"/>
<path d="M227.178 111.244L223.113 115.017L220.478 110.729C220.478 110.729 223.012 108.907 225.288 109.591L227.178 111.244Z" fill="#B55B52"/>
<path d="M220.017 115.81L218.663 114.394C218.405 114.122 218.265 113.76 218.273 113.386C218.28 113.012 218.435 112.656 218.703 112.395L220.437 110.695L223.066 115.017L221.935 115.945C221.655 116.165 221.304 116.273 220.95 116.248C220.595 116.223 220.263 116.067 220.017 115.81Z" fill="#B55B52"/>
<path d="M212.782 81.5379C212.471 83.9564 218.913 91.0221 218.913 91.0221L224.942 83.4754C224.942 83.4754 222.131 79.5327 219.984 78.6384C216.535 77.1819 213.135 78.7807 212.782 81.5379Z" fill="#1660CD"/>
<path d="M205.5 61.4178L204.429 60.9707C204.429 60.9707 204.897 61.8988 205.5 61.4178Z" fill="#263238"/>
<path d="M51.7541 56.6758C49.2544 59.4465 46.1449 67.752 55.7782 66.0855C65.4114 64.419 51.7541 56.6758 51.7541 56.6758Z" fill="#263238"/>
<path d="M54.823 49.041C55.4123 45.3557 48.6718 36.8944 46.0162 42.1175C42.7577 48.4042 54.823 49.041 54.823 49.041Z" fill="#263238"/>
<path d="M54.8433 51.2766C57.8985 49.1359 59.267 38.4052 53.651 40.1259C46.8833 42.1921 54.8433 51.2766 54.8433 51.2766Z" fill="#263238"/>
<path d="M70.3025 84.1463C70.2415 84.7153 70.1874 85.4266 70.1399 86.077C70.0925 86.7273 70.0654 87.4319 70.0451 88.1093C70.0451 89.4642 69.9638 90.8191 70.0044 92.1401C70.0613 94.816 70.3035 97.4847 70.7293 100.127C70.8242 100.805 70.9732 101.428 71.0951 102.078L71.1358 102.302C71.1344 102.327 71.1344 102.351 71.1358 102.376C71.1358 102.376 71.1358 102.376 71.1358 102.437C71.1358 102.498 71.4609 102.661 71.9216 102.708C72.4594 102.772 73.0029 102.772 73.5407 102.708C76.1442 102.288 78.6903 101.567 81.1281 100.561L82.4423 102.898C81.8123 103.352 81.2094 103.731 80.5726 104.11C79.9358 104.49 79.3057 104.856 78.6351 105.181C77.269 105.889 75.8315 106.45 74.3469 106.854C73.5063 107.079 72.6423 107.204 71.7726 107.227C70.6362 107.259 69.5138 106.971 68.5344 106.393C67.9453 106.028 67.4435 105.538 67.0643 104.957C66.8841 104.684 66.732 104.394 66.6105 104.09C66.5485 103.949 66.4942 103.804 66.4479 103.657L66.3801 103.44L66.3463 103.304C66.1633 102.586 65.9466 101.861 65.7907 101.137C65.1415 98.2416 64.7538 95.2941 64.6323 92.3298C64.5578 90.8597 64.5307 89.3964 64.5849 87.9264C64.5849 87.188 64.6459 86.4563 64.7001 85.7179C64.7543 84.9795 64.822 84.275 64.9304 83.4485L70.3025 84.1463Z" fill="#FFB573"/>
<path d="M69.6251 77.7578C71.6574 78.6791 71.6574 87.7907 71.6574 87.7907L62.4578 91.9638C62.4578 91.9638 60.8861 80.8876 62.9523 78.8078C65.0185 76.7281 66.6511 76.4164 69.6251 77.7578Z" fill="#263238"/>
<path opacity="0.2" d="M69.117 79.7021L70.499 88.3395L65.5062 90.5954L69.117 79.7021Z" fill="black"/>
<path d="M79.9493 101.699L83.7904 97.4917L84.9963 102.125C84.9963 102.125 82.5371 104.476 80.4438 103.799L79.9493 101.699Z" fill="#FFB573"/>
<path d="M86.2631 97.3563L86.8321 99.6528C86.8748 99.8335 86.8698 100.022 86.8176 100.2C86.7653 100.379 86.6676 100.54 86.5341 100.669L84.9963 102.126L83.7904 97.4918L84.5356 96.8144C84.6712 96.6916 84.8366 96.6065 85.0153 96.5673C85.194 96.5281 85.3798 96.5364 85.5544 96.5911C85.7289 96.6459 85.8861 96.7453 86.0104 96.8795C86.1347 97.0137 86.2218 97.1781 86.2631 97.3563Z" fill="#FFB573"/>
<path d="M70.7835 79.8578C70.5261 82.9538 68.9747 90.5005 62.6542 108.791L41.4502 105.126C43.2048 96.9972 44.1261 91.8079 43.3132 75.6035C43.2936 75.2378 43.3495 74.8719 43.4774 74.5287C43.6054 74.1855 43.8026 73.8723 44.0567 73.6086C44.3109 73.3448 44.6167 73.1363 44.9549 72.9958C45.2932 72.8554 45.6567 72.786 46.023 72.7921C48.149 72.8113 50.2724 72.9448 52.3842 73.1918C55.6274 73.5088 58.8442 74.0544 62.0106 74.8244C64.5984 75.5019 67.3692 76.491 69.0425 77.1007C69.5973 77.3022 70.0693 77.6824 70.3845 78.1815C70.6997 78.6806 70.84 79.2703 70.7835 79.8578Z" fill="#263238"/>
<path opacity="0.2" d="M43.7129 80.1357C45.5488 80.9487 46.9646 83.3468 46.084 87.1676C45.6627 88.9012 44.7583 90.4798 43.4758 91.72C43.6519 88.6919 43.679 85.1488 43.5368 80.5829L43.7129 80.1357Z" fill="black"/>
<path d="M55.2023 62.5154C55.2768 65.7197 54.9042 71.4983 52.3774 73.1919C52.3774 73.1919 54.2133 75.4884 59.3415 79.4447C64.2326 76.7349 62.0106 74.8516 62.0106 74.8516C58.6979 73.4358 59.2263 70.8886 60.2425 68.5853L55.2023 62.5154Z" fill="#FFB573"/>
<path opacity="0.2" d="M57.2618 64.9949L60.2425 68.5785C59.9972 69.1132 59.8 69.6687 59.6531 70.2383C58.366 69.8183 56.4827 68.3347 56.4488 66.8511C56.4285 66.1533 57.0924 65.2929 57.2618 64.9949Z" fill="black"/>
<path d="M52.689 56.6148C52.9803 61.865 52.9871 64.0667 55.6223 66.7765C59.5854 70.8412 65.9669 69.3508 67.254 64.1209C68.4125 59.3788 67.7418 51.6153 62.6203 49.4949C61.4905 49.021 60.2581 48.8444 59.0406 48.9818C57.8231 49.1193 56.6611 49.5662 55.6654 50.2801C54.6696 50.994 53.8733 51.951 53.3522 53.0599C52.8312 54.1688 52.6029 55.3927 52.689 56.6148Z" fill="#FFB573"/>
<path d="M52.6416 60.1307C54.9042 60.2459 57.4988 55.8832 56.4488 53.9118C57.6343 53.6476 62.688 54.2167 62.6677 52.3537C64.9507 53.9457 69.9638 54.027 70.797 51.8659C71.6303 49.7049 69.7335 47.6929 67.2676 48.4787C65.4859 43.8856 56.9162 42.9372 53.7187 47.3C49.6676 47.1983 40.8676 53.8237 52.6416 60.1307Z" fill="#263238"/>
<path d="M61.7667 58.0645C61.7667 58.4913 61.9835 58.8368 62.268 58.8368C62.5526 58.8368 62.7693 58.4981 62.7761 58.0713C62.7829 57.6445 62.5526 57.2922 62.2748 57.2922C61.9971 57.2922 61.7667 57.6377 61.7667 58.0645Z" fill="#263238"/>
<path d="M66.5901 58.0917C66.5901 58.5185 66.8137 58.864 67.0915 58.8708C67.3692 58.8775 67.5995 58.5253 67.6063 58.0985C67.6131 57.6717 67.3828 57.3262 67.105 57.3194C66.8273 57.3127 66.5969 57.6649 66.5901 58.0917Z" fill="#263238"/>
<path d="M66.9831 57.3465L68.006 57.0552C68.006 57.0552 67.4776 57.8884 66.9831 57.3465Z" fill="#263238"/>
<path d="M65.0998 58.8503C65.474 59.8185 65.9801 60.7304 66.6037 61.5601C66.385 61.7143 66.1354 61.819 65.8722 61.867C65.609 61.9149 65.3384 61.905 65.0794 61.8379L65.0998 58.8503Z" fill="#ED893E"/>
<path d="M62.5932 63.5247C62.8015 63.5583 63.0123 63.5742 63.2232 63.5721C63.2398 63.573 63.2564 63.5705 63.272 63.5648C63.2876 63.5591 63.3018 63.5503 63.3139 63.5389C63.3259 63.5274 63.3355 63.5137 63.3421 63.4984C63.3486 63.4832 63.352 63.4668 63.352 63.4502C63.3503 63.4166 63.3362 63.3848 63.3124 63.361C63.2886 63.3372 63.2569 63.3231 63.2232 63.3214C62.6905 63.3278 62.1639 63.2084 61.686 62.973C61.2081 62.7376 60.7924 62.3928 60.4728 61.9666C60.4645 61.9517 60.4532 61.9387 60.4396 61.9285C60.426 61.9183 60.4104 61.911 60.3938 61.9072C60.3772 61.9033 60.36 61.903 60.3432 61.9063C60.3265 61.9095 60.3107 61.9162 60.2967 61.9259C60.2743 61.9498 60.2618 61.9813 60.2618 62.014C60.2618 62.0467 60.2743 62.0782 60.2967 62.102C60.5673 62.4784 60.9094 62.7977 61.3035 63.0418C61.6975 63.2859 62.1358 63.45 62.5932 63.5247Z" fill="#263238"/>
<path d="M61.8819 64.2428C62.0617 64.3502 62.2497 64.443 62.4442 64.5206C62.4593 64.5271 62.4755 64.5306 62.492 64.5308C62.5085 64.5309 62.5248 64.5277 62.54 64.5214C62.5552 64.5151 62.5689 64.5057 62.5804 64.4939C62.5919 64.4822 62.6009 64.4682 62.6068 64.4528C62.6134 64.4377 62.6169 64.4215 62.617 64.405C62.6171 64.3886 62.614 64.3723 62.6076 64.3571C62.6013 64.3419 62.592 64.3281 62.5802 64.3166C62.5684 64.3051 62.5544 64.2962 62.539 64.2902C62.0466 64.0969 61.6063 63.791 61.2534 63.3969C60.9004 63.0028 60.6447 62.5315 60.5067 62.0208C60.5035 62.0046 60.4971 61.9892 60.4878 61.9755C60.4785 61.9619 60.4665 61.9503 60.4525 61.9414C60.4386 61.9326 60.423 61.9266 60.4067 61.924C60.3904 61.9213 60.3737 61.922 60.3577 61.926C60.3259 61.9325 60.2978 61.9508 60.279 61.9772C60.2602 62.0036 60.252 62.0361 60.2561 62.0682C60.3701 62.5201 60.5725 62.9449 60.8515 63.3181C61.1306 63.6913 61.4808 64.0056 61.8819 64.2428Z" fill="#263238"/>
<path d="M51.0835 60.7067C51.3754 61.6794 52.0369 62.499 52.9261 62.9897C54.1117 63.6265 54.9991 62.6306 54.9178 61.357C54.8433 60.2122 54.132 58.4982 52.8177 58.3898C52.531 58.3713 52.2441 58.4245 51.9831 58.5447C51.7221 58.665 51.4952 58.8485 51.323 59.0785C51.1508 59.3086 51.0387 59.5779 50.9969 59.8622C50.9551 60.1465 50.9848 60.4368 51.0835 60.7067Z" fill="#FFB573"/>
<path d="M59.5718 55.6801C59.6199 55.7032 59.674 55.7104 59.7264 55.7006C59.7787 55.6909 59.8266 55.6647 59.8631 55.6259C60.6828 54.8062 62.1597 55.0433 62.1732 55.0433C62.2386 55.0533 62.3053 55.0378 62.3595 54.9999C62.4138 54.9621 62.4514 54.9048 62.4645 54.84C62.4703 54.8071 62.4694 54.7733 62.462 54.7406C62.4545 54.708 62.4406 54.6772 62.421 54.6501C62.4014 54.6229 62.3766 54.6 62.348 54.5826C62.3194 54.5652 62.2876 54.5537 62.2545 54.5487C62.1868 54.5487 60.5067 54.271 59.5109 55.2736C59.4869 55.2969 59.4679 55.3249 59.4549 55.3557C59.4418 55.3865 59.4352 55.4197 59.4352 55.4531C59.4352 55.4866 59.4418 55.5197 59.4549 55.5505C59.4679 55.5814 59.4869 55.6093 59.5109 55.6326L59.5718 55.6801Z" fill="#263238"/>
<path d="M68.2228 55.7749C68.2655 55.7806 68.3089 55.7756 68.3492 55.7602C68.3894 55.7448 68.4252 55.7196 68.4531 55.6868C68.4952 55.6356 68.5153 55.5697 68.509 55.5037C68.5026 55.4376 68.4704 55.3768 68.4193 55.3345C68.1193 55.0727 67.7612 54.8864 67.3747 54.7909C66.9882 54.6955 66.5845 54.6937 66.1972 54.7858C66.1347 54.806 66.0826 54.8501 66.0522 54.9083C66.0218 54.9666 66.0155 55.0345 66.0347 55.0974C66.0432 55.1295 66.0581 55.1596 66.0786 55.1857C66.0991 55.2118 66.1248 55.2334 66.154 55.2493C66.1831 55.2651 66.2152 55.2749 66.2483 55.2779C66.2814 55.2809 66.3147 55.2771 66.3463 55.2668C66.6537 55.1966 66.9735 55.2012 67.2788 55.2801C67.5841 55.3591 67.866 55.5102 68.1009 55.7207C68.1359 55.7494 68.178 55.7682 68.2228 55.7749Z" fill="#263238"/>
<path d="M60.6286 226.138H65.9262L65.5875 213.87H60.2899L60.6286 226.138Z" fill="#FFB573"/>
<path d="M66.2379 225.522H60.2831C60.1818 225.518 60.0831 225.554 60.0084 225.623C59.9336 225.691 59.8887 225.786 59.8834 225.888L59.4431 230.596C59.4386 230.717 59.4585 230.838 59.5016 230.952C59.5448 231.066 59.6103 231.169 59.6944 231.257C59.7784 231.345 59.8792 231.415 59.9908 231.463C60.1024 231.511 60.2226 231.537 60.3441 231.537C62.4171 231.504 63.4061 231.382 66.0279 231.382C67.6334 231.382 70.9732 231.544 73.1952 231.544C75.4172 231.544 75.4308 229.349 74.4891 229.146C70.2957 228.252 68.5954 227.026 67.1389 225.847C66.8838 225.64 66.5663 225.525 66.2379 225.522Z" fill="#263238"/>
<g opacity="0.2">
<path opacity="0.2" d="M65.5875 213.87L65.7637 220.197H60.466L60.2899 213.87H65.5875Z" fill="black"/>
</g>
<path d="M62.6677 108.792C62.6677 108.792 65.9737 141.871 67.0034 158.008C68.0737 174.788 66.6714 218.978 66.6714 218.978H59.5109C59.5109 218.978 55.0871 169.199 55.0871 159.268C52.269 141.268 44.4987 122.625 47.1407 106.116L62.6677 108.792Z" fill="#1660CD"/>
<path opacity="0.6" d="M62.6677 108.792C62.6677 108.792 65.9737 141.871 67.0034 158.008C68.0737 174.788 66.6714 218.978 66.6714 218.978H59.5109C59.5109 218.978 55.0871 169.199 55.0871 159.268C52.269 141.268 44.4987 122.625 47.1407 106.116L62.6677 108.792Z" fill="white"/>
<path opacity="0.2" d="M51.4154 121.886C49.9091 122.291 48.5664 123.156 47.5743 124.359C48.665 131.222 50.5076 138.26 52.2012 145.306C53.4139 137.651 52.689 124.752 51.4154 121.886Z" fill="#1660CD"/>
<path d="M58.8876 219.228H67.2947L67.9111 216.546L58.4947 216.22L58.8876 219.228Z" fill="#263238"/>
<path d="M68.2702 226.45C68.7235 226.489 69.1768 226.374 69.5573 226.125C69.6427 226.05 69.7079 225.955 69.7469 225.848C69.786 225.742 69.7977 225.627 69.7809 225.515C69.7773 225.445 69.7561 225.378 69.7194 225.319C69.6827 225.259 69.6316 225.21 69.5709 225.176C68.8934 224.824 66.8069 225.901 66.5698 226.023C66.5467 226.034 66.5281 226.053 66.517 226.077C66.506 226.1 66.5031 226.126 66.5088 226.152C66.512 226.177 66.5228 226.201 66.5397 226.22C66.5566 226.24 66.5789 226.254 66.6037 226.26C67.1522 226.374 67.7101 226.438 68.2702 226.45ZM69.2186 225.352C69.2982 225.347 69.3778 225.364 69.4489 225.4C69.4751 225.411 69.4973 225.43 69.5129 225.454C69.5285 225.479 69.5369 225.507 69.537 225.535C69.5474 225.609 69.5393 225.684 69.5132 225.754C69.4872 225.824 69.4441 225.886 69.388 225.935C69.0696 226.226 68.1957 226.274 67.0237 226.084C67.7017 225.718 68.4371 225.471 69.1983 225.352H69.2186Z" fill="#1660CD"/>
<path d="M66.6105 226.26H66.6579C67.2947 225.976 68.5412 224.831 68.4463 224.228C68.4463 224.086 68.3176 223.909 67.9721 223.876C67.8505 223.865 67.728 223.879 67.6117 223.916C67.4954 223.953 67.3876 224.013 67.2947 224.092C66.6172 224.648 66.5089 226.07 66.5021 226.125C66.5016 226.147 66.5062 226.169 66.5156 226.189C66.525 226.209 66.5389 226.226 66.5563 226.24C66.5727 226.25 66.5912 226.257 66.6105 226.26ZM67.8705 224.113H67.945C68.1754 224.113 68.1889 224.228 68.1957 224.255C68.2567 224.621 67.4099 225.515 66.7663 225.908C66.8171 225.304 67.0538 224.732 67.4437 224.268C67.5638 224.169 67.7146 224.114 67.8705 224.113Z" fill="#1660CD"/>
<path d="M16.7236 217.819L21.6215 219.838L26.6278 208.633L21.7366 206.614L16.7236 217.819Z" fill="#FFB573"/>
<path d="M22.0076 219.797L16.832 216.857C16.7442 216.805 16.6402 216.788 16.5402 216.808C16.4401 216.828 16.351 216.884 16.29 216.966L13.3973 220.698C13.3278 220.796 13.2796 220.907 13.2559 221.025C13.2322 221.142 13.2334 221.263 13.2596 221.38C13.2858 221.497 13.3364 221.607 13.4079 221.703C13.4795 221.8 13.5705 221.88 13.6751 221.938C15.4974 222.927 16.4255 223.293 18.7017 224.607C20.0972 225.407 22.9154 227.195 24.8461 228.293C26.7768 229.39 27.9691 227.541 27.2646 226.938C24.0941 224.106 23.2812 222.229 22.6444 220.522C22.5283 220.211 22.3016 219.953 22.0076 219.797Z" fill="#263238"/>
<g opacity="0.2">
<path opacity="0.2" d="M26.6278 208.64L24.0467 214.412L19.1488 212.393L21.7299 206.614L26.6278 208.64Z" fill="black"/>
</g>
<path d="M56.713 107.762C56.713 107.762 48.0553 145.78 46.592 161.876C42.9135 176.827 25.5913 213.7 25.5913 213.7L18.9659 210.991C18.9659 210.991 29.3511 171.597 35.0552 160.745C35.5971 142.752 35.5023 121.074 41.2199 105.093L56.713 107.762Z" fill="#1660CD"/>
<path opacity="0.6" d="M56.713 107.762C56.713 107.762 48.0553 145.78 46.592 161.876C42.9135 176.827 25.5913 213.7 25.5913 213.7L18.9659 210.991C18.9659 210.991 29.3511 171.597 35.0552 160.745C35.5971 142.752 35.5023 121.074 41.2199 105.093L56.713 107.762Z" fill="white"/>
<path d="M18.2614 210.977L26.0316 214.181L27.6236 211.939L19.0472 208.044L18.2614 210.977Z" fill="#263238"/>
<path d="M23.2812 221.559C23.6565 221.816 24.1074 221.94 24.5616 221.911C24.6726 221.888 24.776 221.837 24.8624 221.764C24.9488 221.691 25.0154 221.597 25.0561 221.491C25.0893 221.431 25.1068 221.363 25.1068 221.295C25.1068 221.226 25.0893 221.158 25.0561 221.098C24.67 220.461 22.2989 220.36 22.0347 220.353C22.009 220.35 21.9829 220.355 21.9608 220.369C21.9387 220.382 21.9218 220.403 21.9128 220.427C21.8979 220.448 21.8899 220.473 21.8899 220.499C21.8899 220.524 21.8979 220.549 21.9128 220.57C22.3378 220.94 22.7959 221.271 23.2812 221.559ZM24.6361 221.071C24.7081 221.108 24.7706 221.162 24.819 221.227C24.834 221.251 24.8419 221.279 24.8419 221.308C24.8419 221.337 24.834 221.365 24.819 221.389C24.792 221.458 24.7489 221.519 24.6935 221.567C24.6382 221.615 24.572 221.65 24.5006 221.667C24.0738 221.755 23.2948 221.369 22.3667 220.624C23.1452 220.643 23.9149 220.794 24.6429 221.071H24.6361Z" fill="#1660CD"/>
<path d="M21.9467 220.583C21.9467 220.583 21.9467 220.583 21.9941 220.583C22.6715 220.644 24.338 220.265 24.548 219.696C24.5955 219.56 24.5955 219.357 24.3109 219.154C24.2135 219.085 24.1034 219.037 23.9871 219.012C23.8709 218.986 23.7507 218.984 23.6335 219.005C22.7799 219.154 21.9738 220.36 21.9399 220.36C21.9285 220.378 21.9224 220.399 21.9224 220.421C21.9224 220.442 21.9285 220.463 21.9399 220.482C21.9326 220.498 21.9294 220.516 21.9306 220.533C21.9318 220.551 21.9373 220.568 21.9467 220.583ZM24.1009 219.344C24.1262 219.352 24.1493 219.366 24.1687 219.384C24.3516 219.513 24.3245 219.601 24.3109 219.628C24.1822 219.974 23.0035 220.305 22.2786 220.36C22.6186 219.859 23.1066 219.478 23.6741 219.269C23.8207 219.246 23.9707 219.273 24.1009 219.344Z" fill="#1660CD"/>
<path d="M62.1732 57.3126L63.1962 57.0281C63.1962 57.0281 62.6474 57.8207 62.1732 57.3126Z" fill="#263238"/>
<path d="M41.3622 103.833L40.495 105.635C40.3934 105.77 40.5425 105.946 40.7863 105.994L62.6068 109.76C62.7965 109.794 62.9726 109.76 63.0065 109.604L63.5281 107.741C63.562 107.613 63.4129 107.47 63.2029 107.437L41.7348 103.731C41.6692 103.714 41.6004 103.715 41.5351 103.733C41.4698 103.751 41.4103 103.785 41.3622 103.833Z" fill="#263238"/>
<path d="M43.8823 106.739L43.3064 106.644C43.1913 106.644 43.1167 106.549 43.1371 106.475L43.8145 104.056C43.8145 103.988 43.9432 103.948 44.0584 103.968L44.6342 104.063C44.7494 104.063 44.8239 104.158 44.8036 104.232L44.1261 106.651C44.1261 106.719 44.0177 106.759 43.8823 106.739Z" fill="#1660CD"/>
<g opacity="0.6">
<path opacity="0.6" d="M43.8823 106.739L43.3064 106.644C43.1913 106.644 43.1167 106.549 43.1371 106.475L43.8145 104.056C43.8145 103.988 43.9432 103.948 44.0584 103.968L44.6342 104.063C44.7494 104.063 44.8239 104.158 44.8036 104.232L44.1261 106.651C44.1261 106.719 44.0177 106.759 43.8823 106.739Z" fill="white"/>
</g>
<path d="M60.9538 109.686L60.3848 109.584C60.2696 109.584 60.1883 109.489 60.2086 109.422L60.8861 107.003C60.8861 106.929 61.0148 106.888 61.1299 106.908L61.7058 107.01C61.8209 107.01 61.8955 107.105 61.8751 107.172L61.1977 109.591C61.1841 109.665 61.069 109.706 60.9538 109.686Z" fill="#1660CD"/>
<g opacity="0.6">
<path opacity="0.6" d="M60.9538 109.686L60.3848 109.584C60.2696 109.584 60.1883 109.489 60.2086 109.422L60.8861 107.003C60.8861 106.929 61.0148 106.888 61.1299 106.908L61.7058 107.01C61.8209 107.01 61.8955 107.105 61.8751 107.172L61.1977 109.591C61.1841 109.665 61.069 109.706 60.9538 109.686Z" fill="white"/>
</g>
<path d="M52.4654 108.222L51.8896 108.121C51.7745 108.121 51.6999 108.026 51.7203 107.958L52.3977 105.533C52.3977 105.465 52.5264 105.425 52.6416 105.445L53.2174 105.54C53.3258 105.54 53.4071 105.635 53.3868 105.709L52.7093 108.128C52.689 108.195 52.5806 108.236 52.4654 108.222Z" fill="#1660CD"/>
<g opacity="0.6">
<path opacity="0.6" d="M52.4654 108.222L51.8896 108.121C51.7745 108.121 51.6999 108.026 51.7203 107.958L52.3977 105.533C52.3977 105.465 52.5264 105.425 52.6416 105.445L53.2174 105.54C53.3258 105.54 53.4071 105.635 53.3868 105.709L52.7093 108.128C52.689 108.195 52.5806 108.236 52.4654 108.222Z" fill="white"/>
</g>
<path d="M39.0453 107.965L43.0151 112.084L37.643 112.443C37.643 112.443 35.8071 109.577 36.8775 107.653L39.0453 107.965Z" fill="#FFB573"/>
<path d="M44.7358 79.9596C43.2048 82.3984 41.6196 84.8237 40.0344 87.2286C38.4492 89.6335 36.8301 92.0723 35.3803 94.4027L35.15 94.7685C35.15 94.7685 35.15 94.8092 35.0958 94.8566C35.0401 95.0115 35.0059 95.1734 34.9942 95.3376C34.9513 95.8738 34.9763 96.4132 35.0687 96.9431C35.2959 98.238 35.6313 99.5115 36.0713 100.75C36.5049 102.051 37.013 103.359 37.5753 104.652C38.1375 105.946 38.7201 107.261 39.3095 108.527L37.0333 109.95C35.2154 107.563 33.6276 105.009 32.2912 102.322C31.5796 100.894 31.0122 99.3984 30.5976 97.8577C30.3635 96.9731 30.2406 96.0629 30.2318 95.1479C30.2339 94.5882 30.3044 94.0308 30.4418 93.4882C30.5298 93.1725 30.643 92.8644 30.7805 92.5668L30.9431 92.2417L31.0786 91.9775C31.7967 90.6226 32.5148 89.3625 33.26 88.089C34.0051 86.8154 34.7503 85.5824 35.5091 84.3427C37.0265 81.8565 38.5711 79.4109 40.1902 76.9924L44.7358 79.9596Z" fill="#FFB573"/>
<path d="M46.172 72.9142C40.9692 72.02 37.0604 80.0477 37.0604 80.0477L43.1574 87.5538C43.1574 87.5538 47.0662 83.1843 47.9334 80.3865C48.8547 77.4734 48.7056 73.3546 46.172 72.9142Z" fill="#263238"/>
<path d="M43.4758 116.514L38.9572 116.569L37.643 112.443L43.0151 112.084L43.4758 116.514Z" fill="#FFB573"/>
<path d="M222.131 19.7279C223.849 19.7296 225.549 20.0698 227.135 20.7289C228.721 21.3881 230.162 22.3532 231.375 23.5693C232.588 24.7854 233.549 26.2285 234.204 27.8163C234.859 29.404 235.195 31.1053 235.192 32.8228V132.299C235.189 135.761 233.811 139.082 231.363 141.53C228.914 143.979 225.594 145.356 222.131 145.36H189.004C186.309 145.36 183.724 146.43 181.819 148.336C179.913 150.242 178.842 152.826 178.842 155.521V165.155L158.58 147.798C156.738 146.223 154.393 145.358 151.968 145.36H45.8333C42.3704 145.356 39.0503 143.979 36.6017 141.53C34.153 139.082 32.7758 135.761 32.7722 132.299V32.8228C32.7758 29.3599 34.153 26.0399 36.6017 23.5912C39.0503 21.1426 42.3704 19.7653 45.8333 19.7617H222.131V19.7279ZM222.131 9.6001H45.8333C39.6797 9.61797 33.7833 12.0704 29.4321 16.4216C25.0808 20.7729 22.6284 26.6693 22.6105 32.8228V132.299C22.6284 138.452 25.0808 144.349 29.4321 148.7C33.7833 153.051 39.6797 155.503 45.8333 155.521H151.968L189.004 187.239V155.521H222.131C228.285 155.503 234.181 153.051 238.532 148.7C242.883 144.349 245.336 138.452 245.354 132.299V32.8228C245.336 26.6693 242.883 20.7729 238.532 16.4216C234.181 12.0704 228.285 9.61797 222.131 9.6001Z" fill="#1660CD"/>
<path d="M126.435 228.157C127.059 228.157 127.648 228.076 127.838 227.798C127.89 227.725 127.918 227.637 127.918 227.547C127.918 227.458 127.89 227.37 127.838 227.297C127.796 227.23 127.742 227.172 127.678 227.127C127.614 227.082 127.542 227.049 127.465 227.032C126.659 226.816 125.013 227.771 124.938 227.812C124.918 227.824 124.903 227.843 124.894 227.865C124.886 227.887 124.884 227.911 124.891 227.933C124.895 227.956 124.907 227.977 124.924 227.993C124.941 228.009 124.963 228.019 124.986 228.022C125.464 228.112 125.949 228.157 126.435 228.157ZM127.167 227.229C127.241 227.222 127.316 227.222 127.391 227.229C127.483 227.252 127.563 227.311 127.614 227.392C127.702 227.534 127.675 227.602 127.648 227.642C127.438 227.954 126.219 227.961 125.318 227.839C125.89 227.523 126.518 227.323 127.167 227.249V227.229Z" fill="#1660CD"/>
<path d="M124.979 228.028H125.026C125.595 227.771 126.706 226.728 126.598 226.186C126.598 226.057 126.476 225.894 126.164 225.867C126.052 225.854 125.938 225.863 125.83 225.896C125.721 225.929 125.621 225.984 125.534 226.057C124.945 226.565 124.857 227.859 124.857 227.913C124.857 227.934 124.863 227.955 124.872 227.973C124.881 227.992 124.895 228.009 124.911 228.022C124.933 228.031 124.956 228.033 124.979 228.028ZM126.076 226.077H126.151C126.354 226.077 126.368 226.179 126.374 226.206C126.442 226.531 125.697 227.351 125.108 227.71C125.138 227.166 125.342 226.646 125.69 226.226C125.795 226.129 125.933 226.076 126.076 226.077Z" fill="#1660CD"/>
<path d="M119.675 227.913H124.491L124.552 216.762H119.736L119.675 227.913Z" fill="#CE7A63"/>
<path d="M124.444 227.357H119.18C119.087 227.356 118.996 227.388 118.924 227.448C118.852 227.507 118.803 227.591 118.787 227.683L117.994 231.991C117.976 232.097 117.98 232.205 118.008 232.309C118.036 232.413 118.086 232.509 118.155 232.591C118.224 232.673 118.311 232.739 118.408 232.784C118.506 232.829 118.612 232.852 118.719 232.852C120.616 232.818 123.353 232.702 125.738 232.702C128.522 232.702 128.867 232.858 132.139 232.858C134.118 232.858 134.585 230.86 133.752 230.677C129.958 229.85 128.949 229.762 125.622 227.757C125.273 227.519 124.866 227.381 124.444 227.357Z" fill="#263238"/>
<path opacity="0.2" d="M124.552 216.762L124.525 222.514H119.702L119.736 216.762H124.552Z" fill="black"/>
<path d="M87.7941 226.497C87.8308 225.987 87.6736 225.481 87.3537 225.081C87.2809 225.028 87.1931 225 87.1031 225C87.013 225 86.9253 225.028 86.8524 225.081C86.7881 225.12 86.7329 225.172 86.6908 225.234C86.6487 225.296 86.6206 225.366 86.6085 225.44C86.4324 226.24 87.4824 227.927 87.5299 228.001C87.5427 228.021 87.5611 228.037 87.5828 228.046C87.6044 228.056 87.6284 228.059 87.6518 228.055C87.6742 228.053 87.695 228.042 87.7109 228.026C87.7269 228.01 87.737 227.99 87.7399 227.967C87.7971 227.479 87.8152 226.988 87.7941 226.497ZM86.8186 225.725C86.8083 225.653 86.8083 225.58 86.8186 225.508C86.8244 225.463 86.8402 225.419 86.8647 225.381C86.8893 225.342 86.9221 225.309 86.9608 225.285C87.1031 225.203 87.1708 225.237 87.2115 225.285C87.5366 225.508 87.6112 226.728 87.5366 227.622C87.1778 227.041 86.934 226.397 86.8186 225.725Z" fill="#1660CD"/>
<path d="M87.7399 227.927C87.7439 227.911 87.7439 227.895 87.7399 227.879C87.4486 227.297 86.3443 226.138 85.8024 226.219C85.6737 226.219 85.5179 226.328 85.5043 226.646C85.4971 226.878 85.5796 227.104 85.7346 227.276C86.2764 227.714 86.9374 227.978 87.6315 228.035C87.6512 228.038 87.6713 228.035 87.6894 228.027C87.7075 228.018 87.7227 228.005 87.7331 227.988C87.742 227.969 87.7444 227.947 87.7399 227.927ZM85.7075 226.734V226.667C85.7075 226.463 85.7956 226.45 85.8227 226.45C86.1479 226.396 87.0082 227.181 87.4011 227.805C86.84 227.748 86.3089 227.524 85.8769 227.161C85.783 227.048 85.7284 226.908 85.7211 226.761L85.7075 226.734Z" fill="#1660CD"/>
<path d="M87.6654 227.981L92.3872 228.313L94.3314 217.074L89.6164 216.742L87.6654 227.981Z" fill="#CE7A63"/>
<path d="M87.6179 226.904L92.8275 226.443C92.9247 226.435 93.0221 226.458 93.1042 226.511C93.1864 226.564 93.2487 226.642 93.2814 226.734L94.8666 230.914C94.9034 231.011 94.9177 231.114 94.9083 231.217C94.899 231.32 94.8663 231.419 94.8127 231.507C94.7591 231.596 94.686 231.671 94.5991 231.726C94.5121 231.782 94.4136 231.817 94.3111 231.829C92.4278 231.964 89.6909 232.093 87.3266 232.303C84.5694 232.547 86.3647 232.54 83.1265 232.831C81.1687 233.008 80.3286 231.063 81.0942 230.799C84.6982 229.647 85.3146 228.855 86.5137 227.371C86.6571 227.223 86.8287 227.106 87.0184 227.025C87.2081 226.945 87.412 226.904 87.6179 226.904Z" fill="#263238"/>
<path opacity="0.2" d="M94.3314 217.081L93.3288 222.873L88.607 222.541L89.6096 216.742L94.3314 217.081Z" fill="black"/>
<path d="M126.286 105.411C126.286 105.411 117.48 142.406 114.147 156.138C110.468 171.171 96.0453 221.057 96.0453 221.057L87.4418 219.194C87.4418 219.194 96.7905 176.333 100.469 155.359C103.294 139.256 109.675 105.411 109.675 105.411H126.286Z" fill="#263238"/>
<path d="M97.4002 218.443L96.7634 221.755L86.4866 220.658L86.3443 217.623L97.4002 218.443Z" fill="#1660CD"/>
<path opacity="0.3" d="M121.212 122.557C115.115 123.363 114.011 144.73 113.869 157.263L114.147 156.131C115.976 148.639 119.424 134.189 122.188 122.625C121.872 122.53 121.538 122.507 121.212 122.557Z" fill="black"/>
<path d="M135.425 105.411C135.425 105.411 133.074 141.438 132.038 156.104C130.947 171.36 126.618 221.396 126.618 221.396H118.401C118.401 221.396 117.541 172.275 117.303 157.269C117.039 140.916 118.482 105.411 118.482 105.411H135.425Z" fill="#263238"/>
<path d="M127.723 218.151C127.756 218.151 127.391 221.538 127.391 221.538H117.466L117.08 218.51L127.723 218.151Z" fill="#1660CD"/>
<path d="M112.643 70.7599C111.328 73.4222 109.994 76.2201 108.761 78.9705C107.528 81.7209 106.315 84.5052 105.374 87.2827L105.008 88.3192L104.683 89.3489L104.534 89.8163C104.546 89.706 104.546 89.5947 104.534 89.4844C104.488 89.0282 104.27 88.6067 103.924 88.3056C103.66 88.1295 103.653 88.204 103.755 88.2582C103.943 88.3454 104.141 88.4113 104.344 88.4547C104.951 88.5824 105.567 88.6662 106.187 88.7053C109.152 88.7966 112.12 88.7083 115.075 88.4411H115.156C115.593 88.4081 116.028 88.5339 116.38 88.7954C116.732 89.0569 116.978 89.4366 117.073 89.8648C117.167 90.293 117.104 90.741 116.895 91.1265C116.686 91.5121 116.346 91.8094 115.935 91.9638C112.859 93.2044 109.634 94.0379 106.342 94.4433C105.397 94.5402 104.444 94.5493 103.497 94.4704C102.925 94.424 102.358 94.3242 101.804 94.1723C100.99 93.9608 100.234 93.5669 99.5951 93.0207C99.1327 92.6245 98.7528 92.1411 98.4774 91.598C98.2003 91.0344 98.0346 90.4225 97.9896 89.796C97.9615 89.2963 98.0002 88.7951 98.1048 88.3056L98.2538 87.6282L98.5383 86.402L98.8635 85.203C99.7535 82.0866 100.828 79.0259 102.081 76.0371C103.328 73.0699 104.649 70.2179 106.187 67.332C106.638 66.4876 107.404 65.8543 108.318 65.5688C109.232 65.2832 110.221 65.3681 111.073 65.8052C111.925 66.2423 112.572 66.9967 112.873 67.9057C113.174 68.8147 113.106 69.8057 112.683 70.665L112.643 70.7599Z" fill="#CF7A64"/>
<path d="M115.21 88.6241L118.204 87.4453L118.055 93.0139C116.847 92.9293 115.68 92.535 114.668 91.869C114.42 91.6891 114.233 91.4374 114.132 91.1479C114.032 90.8583 114.023 90.5449 114.106 90.2499L114.275 89.6402C114.339 89.4087 114.457 89.1958 114.62 89.0191C114.782 88.8424 114.985 88.7069 115.21 88.6241Z" fill="#CE7A63"/>
<path d="M123.136 86.8152L122.059 91.6386L118.055 93.007L118.204 87.4452L123.136 86.8152Z" fill="#CE7A63"/>
<path d="M128.712 45.8435C128.793 46.2228 129.057 46.487 129.301 46.4396C129.545 46.3922 129.694 46.0399 129.613 45.6606C129.531 45.2812 129.274 44.9831 129.023 45.0576C128.773 45.1321 128.637 45.4573 128.712 45.8435Z" fill="#263238"/>
<path d="M129.016 46.4939C129.707 47.5666 130.544 48.538 131.503 49.3798C131.28 49.6188 131.007 49.8062 130.704 49.9291C130.401 50.0519 130.075 50.1072 129.748 50.0911L129.016 46.4939Z" fill="#BA4D3C"/>
<path d="M126.889 44.0076C126.832 44.0069 126.776 43.9852 126.733 43.9467C126.712 43.9259 126.696 43.9011 126.684 43.8737C126.673 43.8464 126.667 43.8171 126.667 43.7875C126.667 43.7578 126.673 43.7285 126.684 43.7012C126.696 43.6738 126.712 43.6491 126.733 43.6283C126.974 43.3559 127.275 43.1449 127.614 43.0129C127.952 42.8809 128.317 42.8318 128.678 42.8695C128.737 42.881 128.789 42.9151 128.823 42.9645C128.857 43.0138 128.871 43.0745 128.861 43.1337C128.857 43.1632 128.847 43.1916 128.831 43.2172C128.816 43.2428 128.796 43.2651 128.772 43.2828C128.748 43.3004 128.721 43.3131 128.692 43.3201C128.663 43.3271 128.633 43.3282 128.603 43.3234C128.317 43.2956 128.029 43.3372 127.762 43.4445C127.496 43.5518 127.259 43.7217 127.072 43.9399C127.048 43.9635 127.02 43.9817 126.988 43.9934C126.957 44.0051 126.923 44.0099 126.889 44.0076Z" fill="#263238"/>
<path d="M118.144 52.7671C118.821 56.2898 119.248 61.1742 116.789 63.5249C116.789 63.5249 117.757 67.095 124.301 67.095C131.496 67.095 127.763 63.9585 127.763 63.9585C124.769 63.0304 124.796 59.6228 125.48 56.8859L118.144 52.7671Z" fill="#CE7A63"/>
<path d="M108.165 63.5384C103.646 64.5749 100.672 76.7553 100.672 76.7553L108.239 82.4188C111.04 80.408 113.026 77.4582 113.835 74.1065C115.352 68.0502 112.778 62.4816 108.165 63.5384Z" fill="#1660CD"/>
<path opacity="0.2" d="M112.033 72.0132C109.454 74.7588 107.953 78.3431 107.806 82.1071L108.205 82.4187C111.004 80.4058 112.989 77.4569 113.801 74.1065C113.889 73.7474 113.97 73.3816 114.038 73.0293L112.033 72.0132Z" fill="black"/>
<path d="M136.692 68.3684C137.667 73.5237 139.137 85.7583 136.387 106.556C136.361 106.726 136.282 106.884 136.16 107.006C136.038 107.128 135.88 107.208 135.71 107.233C133.349 107.512 130.962 107.48 128.61 107.138C123.868 106.461 119.932 106.752 115.332 107.138C113.304 107.296 111.267 107.325 109.235 107.227C109.126 107.221 109.019 107.193 108.921 107.144C108.824 107.095 108.737 107.026 108.667 106.942C108.597 106.858 108.545 106.761 108.515 106.656C108.484 106.551 108.476 106.441 108.49 106.332C109.201 100.98 111.782 81.084 108.199 63.5585C111.045 63.0129 113.923 62.6508 116.816 62.4746C120.464 62.2611 124.122 62.2611 127.77 62.4746C128.976 62.583 130.161 62.7591 131.218 62.9421C132.571 63.1901 133.817 63.8409 134.794 64.8091C135.77 65.7773 136.432 67.0179 136.692 68.3684Z" fill="#1660CD"/>
<path d="M115.854 47.6117C117.087 52.2319 117.581 54.9959 120.427 56.913C124.715 59.8057 130.046 56.4862 130.216 51.5951C130.365 47.1917 128.319 40.3834 123.367 39.4485C122.275 39.2371 121.147 39.3084 120.091 39.6558C119.035 40.0033 118.085 40.6152 117.332 41.4333C116.579 42.2515 116.048 43.2488 115.789 44.3302C115.53 45.4117 115.553 46.5413 115.854 47.6117Z" fill="#CE7A63"/>
<path d="M126.659 49.0275C128.102 52.2115 127.648 55.1245 125.853 56.4794C123.82 58.0239 118.123 58.261 115.962 56.0729C116.782 55.2532 117.236 54.2303 116.186 52.7738C115.136 51.3173 111.281 49.0546 111.207 45.9451C111.132 42.8357 113.191 42.4834 113.069 42.4834C111.247 41.6705 111.362 38.7439 113.368 37.1316C115.495 35.4177 118.95 34.9435 123.062 35.7767C125.656 36.2916 128.204 36.2441 127.756 34.6047C130.812 36.3593 129.294 42.856 126.341 43.7096C126.808 44.8816 128.854 46.7445 128.854 46.7445C128.854 46.7445 128.353 48.682 126.659 49.0275Z" fill="#263238"/>
<path d="M113.368 41.8534C113.368 41.8534 112.257 42.5308 109.337 41.6772C110.123 43.1337 113.042 43.1879 113.747 42.856C114.451 42.524 113.368 41.8534 113.368 41.8534Z" fill="#263238"/>
<path d="M124.803 47.8623C125.068 48.951 125.688 49.9208 126.564 50.6195C127.723 51.534 128.596 50.694 128.596 49.3526C128.549 48.1468 127.919 46.2228 126.605 45.8299C125.291 45.437 124.498 46.548 124.803 47.8623Z" fill="#CE7A63"/>
<path d="M136.875 67.664C137.478 69.0663 138.047 70.4821 138.629 71.8912C139.212 73.3003 139.781 74.7162 140.343 76.132L143.69 84.5933C144.252 85.9888 144.814 87.3776 145.383 88.7121L145.817 89.6741L145.925 89.9112V89.9654C145.925 89.9654 145.925 89.9654 145.885 89.8977C145.788 89.7281 145.677 89.5671 145.553 89.4167C145.301 89.1388 145 88.9093 144.665 88.7392C144.42 88.602 144.155 88.5037 143.88 88.4479C143.71 88.41 143.538 88.3874 143.365 88.3802C143.259 88.3733 143.152 88.3733 143.046 88.3802C142.941 88.387 142.836 88.4052 142.735 88.4344C142.677 88.4452 142.622 88.4658 142.572 88.4953C142.775 88.4567 142.972 88.3883 143.155 88.2921C143.426 88.1702 143.731 88.0211 144.029 87.8586C145.262 87.1811 146.562 86.4427 147.856 85.6907C149.15 84.9388 150.491 84.18 151.833 83.4619H151.873C152.249 83.2591 152.684 83.1938 153.103 83.2773C153.523 83.3608 153.899 83.5878 154.169 83.9192C154.439 84.2506 154.584 84.6657 154.581 85.093C154.577 85.5202 154.425 85.9329 154.15 86.2598C152.123 88.718 149.854 90.965 147.375 92.9665C147.043 93.2239 146.698 93.4813 146.312 93.7455C145.852 94.068 145.362 94.3448 144.848 94.572C144.629 94.6657 144.402 94.7427 144.171 94.8023C143.978 94.853 143.78 94.887 143.581 94.904C143.426 94.9141 143.27 94.9141 143.114 94.904C142.886 94.9 142.659 94.8728 142.437 94.8227C142.118 94.7517 141.81 94.6378 141.522 94.4839C141.142 94.281 140.804 94.0074 140.526 93.6778C140.386 93.5099 140.259 93.3309 140.147 93.1426L140.086 93.0274L140.045 92.9597L139.896 92.6819C139.686 92.3094 139.51 91.9571 139.314 91.5913C138.575 90.1686 137.905 88.7663 137.281 87.3572C135.974 84.5459 134.748 81.7412 133.549 78.9231C132.952 77.514 132.365 76.1004 131.787 74.6823C131.211 73.2664 130.636 71.8506 130.087 70.4279C129.721 69.5296 129.727 68.5228 130.104 67.629C130.481 66.7353 131.197 66.0278 132.095 65.6621C132.994 65.2965 134.001 65.3027 134.894 65.6794C135.788 66.0561 136.496 66.7724 136.861 67.6708L136.875 67.664Z" fill="#CF7A64"/>
<path d="M154.556 80.6574C153.691 81.153 152.932 81.8144 152.323 82.6037C151.714 83.393 151.266 84.2947 151.006 85.2572L152.68 87.4047L156.338 86.2734C156.627 86.182 156.878 85.9959 157.049 85.745L158.926 82.9742C159.072 82.7045 159.138 82.3987 159.116 82.0927C159.095 81.7868 158.986 81.4933 158.804 81.2468L156.819 78.5776L154.556 80.6574Z" fill="#CE7A63"/>
<path d="M126.93 71.0444C127.35 76.4165 133.264 83.4348 133.264 83.4348L141.603 77.182C141.603 77.182 140.337 69.6285 136.014 65.53C130.669 60.4695 126.53 66.0178 126.93 71.0444Z" fill="#1660CD"/>
<path d="M128.955 62.4544C128.183 60.1917 119.302 59.7988 113.95 60.3408C108.598 60.8827 111.295 65.049 112.196 65.6316C109.77 66.5326 111.064 70.814 115.583 72.9141C120.101 75.0142 129.917 65.1845 128.955 62.4544Z" fill="#263238"/>
</svg>
