<svg width="24" height="24" viewBox="0 0 24 24" fill="none" xmlns="http://www.w3.org/2000/svg">
<path d="M22.0018 10.0077C21.9773 10.0567 21.9528 10.1056 21.9293 10.1589C21.7038 10.6918 21.0265 10.8405 20.6111 10.4794C20.4594 10.3473 20.3175 10.2035 20.1732 10.0625C20.0993 9.99011 20.0298 9.91231 19.974 9.8531L16.8609 12.9662C16.8786 13.1007 16.9001 13.2867 16.9275 13.4716C16.9867 13.8729 16.9803 14.2766 16.9652 14.6798C16.9272 15.6099 16.7051 16.5233 16.3119 17.3671C15.961 18.1238 15.486 18.8164 14.9066 19.4164C14.8266 19.5067 14.7294 19.5802 14.6207 19.6326C14.512 19.6849 14.3939 19.715 14.2734 19.7212C14.0964 19.7317 13.9212 19.6813 13.7768 19.5783C13.693 19.5167 13.614 19.4488 13.5404 19.3753C12.306 18.1422 11.072 16.9084 9.83823 15.674C9.7893 15.6251 9.73644 15.5762 9.67039 15.5111C9.61509 15.5747 5.5601 19.6424 3.58178 21.6217C3.52208 21.6819 3.46239 21.7421 3.39828 21.7974C3.23575 21.9359 3.02693 22.008 2.81355 21.9993C2.60017 21.9906 2.39794 21.9016 2.24727 21.7503C2.0966 21.5989 2.00858 21.3963 2.00081 21.1829C1.99303 20.9695 2.06606 20.761 2.20532 20.5991C2.26061 20.535 2.3208 20.4753 2.3805 20.4156C4.36029 18.4358 8.43045 14.3871 8.497 14.3343L8.32427 14.1591C7.0902 12.9251 5.85696 11.6905 4.62452 10.4555C4.51564 10.3532 4.42511 10.2331 4.35687 10.1002C4.19148 9.74251 4.29472 9.36622 4.57461 9.10591C4.87986 8.81352 5.20703 8.54492 5.55325 8.30245C6.03518 7.97075 6.55532 7.69835 7.10244 7.49115C7.51435 7.33344 7.94035 7.2153 8.37467 7.13835C8.68175 7.08154 8.99239 7.04606 9.30438 7.03217C9.64201 7.02239 9.97963 7.02483 10.3158 7.0449C10.5678 7.06006 10.8174 7.109 11.0498 7.14276L14.1438 4.04879C14.1261 4.02824 14.0948 3.98908 14.0611 3.95385C13.8888 3.77623 13.7117 3.60302 13.5439 3.42197C13.4474 3.31562 13.3794 3.1865 13.3465 3.04672C13.3135 2.90695 13.3166 2.76109 13.3554 2.62283C13.3943 2.48457 13.4676 2.35845 13.5685 2.25627C13.6694 2.15409 13.7946 2.07921 13.9324 2.03866C13.9541 2.02853 13.9743 2.01553 13.9926 2H14.3439C14.6037 2.08563 14.7936 2.26521 14.9824 2.45409C17.1681 4.64461 19.3565 6.83318 21.5477 9.01978C21.737 9.20817 21.9161 9.39803 22.0018 9.6559V10.0077Z" fill="#57585C"/>
</svg>
